{
    "asset": {
        "version": "2.0",
        "generator": "Open Asset Import Library (assimp v5.2.cf7d3637)"
    },
    "extensionsUsed": [
        "KHR_materials_volume",
        "FB_ngon_encoding"
    ],
    "accessors": [
        {
            "bufferView": 0,
            "byteOffset": 0,
            "componentType": 5126,
            "count": 1845966,
            "type": "VEC3",
            "max": [
                12.446442604064942,
                19.117780685424806,
                89.8875961303711
            ],
            "min": [
                -40.098297119140628,
                -35.71908950805664,
                -75.87619018554688
            ]
        },
        {
            "bufferView": 1,
            "byteOffset": 0,
            "componentType": 5126,
            "count": 1845966,
            "type": "VEC3",
            "max": [
                0.9999993443489075,
                0.9999985694885254,
                0.9999817609786987
            ],
            "min": [
                -0.999997079372406,
                -0.9999978542327881,
                -0.9999937415122986
            ]
        },
        {
            "bufferView": 2,
            "byteOffset": 0,
            "componentType": 5125,
            "count": 1845966,
            "type": "SCALAR",
            "max": [
                1845965
            ],
            "min": [
                0
            ]
        }
    ],
    "buffers": [
        {
            "byteLength": 51687048,
            "uri": "result.bin"
        }
    ],
    "bufferViews": [
        {
            "buffer": 0,
            "byteOffset": 0,
            "byteLength": 22151592,
            "target": 34962
        },
        {
            "buffer": 0,
            "byteOffset": 22151592,
            "byteLength": 22151592,
            "target": 34962
        },
        {
            "buffer": 0,
            "byteOffset": 44303184,
            "byteLength": 7383864,
            "target": 34963
        }
    ],
    "materials": [
        {
            "name": "DefaultMaterial",
            "pbrMetallicRoughness": {
                "baseColorFactor": [
                    0.49803924560546877,
                    0.49803924560546877,
                    0.49803924560546877,
                    0.125490203499794
                ],
                "metallicFactor": 0.0
            }
        }
    ],
    "meshes": [
        {
            "primitives": [
                {
                    "mode": 4,
                    "material": 0,
                    "indices": 2,
                    "attributes": {
                        "POSITION": 0,
                        "NORMAL": 1
                    }
                }
            ]
        }
    ],
    "nodes": [
        {
            "name": "<STL_BINARY>",
            "children": [
                1
            ]
        },
        {
            "name": "node",
            "mesh": 0
        }
    ],
    "scenes": [
        {
            "nodes": [
                0
            ]
        }
    ],
    "scene": 0
}